<?xml version="1.0" standalone="no"?>
<!DOCTYPE svg PUBLIC "-//W3C//DTD SVG 1.1//EN" "http://www.w3.org/Graphics/SVG/1.1/DTD/svg11.dtd">
<svg xmlns="http://www.w3.org/2000/svg" width="500" height="180" viewBox="0 0 500 180" fill="none">
<path d="M89.4125 165L10 105.945L42.754 15L84.5655 50.7839L136.316 16.2172L170 105.068L89.4125 165ZM30.612 103.754L89.4125 147.473L153.109 100.151L129.461 37.7362L30.612 103.754ZM49.1187 38.9046L32.2766 85.6914L72.4235 58.8657L49.1187 38.9046Z" fill="white"/>
<path d="M223.81 47.8312C230.842 47.8312 236.904 48.995 242.044 51.2743C247.185 53.6021 251.404 56.6088 254.75 60.3429C258.096 64.0771 260.618 68.3931 262.267 73.2426C263.916 78.0922 264.788 83.0387 264.837 88.1307C264.934 93.2712 264.158 98.3632 262.606 103.358C261.054 108.353 258.581 112.815 255.235 116.791C251.889 120.719 247.573 123.92 242.384 126.296C237.195 128.673 230.987 129.885 223.81 129.885H191.561V47.8312H223.81ZM206.934 114.997H223.81C228.514 114.997 232.491 114.221 235.788 112.669C239.086 111.117 241.753 109.032 243.839 106.51C245.924 103.989 247.379 101.079 248.3 97.8782C249.222 94.6775 249.61 91.3798 249.513 88.0337C249.416 84.833 248.882 81.6808 247.864 78.6741C246.845 75.6189 245.293 72.9032 243.257 70.4784C241.171 68.0537 238.553 66.1139 235.352 64.659C232.151 63.2042 228.32 62.4767 223.859 62.4767H206.982V114.997H206.934Z" fill="white"/>
<path d="M333.7 71.9817L309.065 130.127H293.595L268.862 71.9817H284.478L292.431 91.0888L301.354 115.482L310.132 91.3313L318.085 71.9817H333.7Z" fill="white"/>
<path d="M353.438 103.019C353.438 105.201 353.729 107.238 354.311 109.129C354.893 111.02 355.765 112.669 356.929 114.076C358.093 115.482 359.548 116.597 361.342 117.373C363.088 118.149 365.125 118.537 367.356 118.537C369.538 118.537 371.575 118.101 373.369 117.228C375.212 116.355 376.764 115.191 378.073 113.688C379.383 112.184 380.353 110.487 381.08 108.547C381.807 106.607 382.147 104.522 382.147 102.34V72.0787H396.356V130.127H383.553L382.632 122.853C379.674 125.811 376.667 127.994 373.66 129.4C370.653 130.806 367.113 131.534 363.04 131.534C359.597 131.534 356.396 130.903 353.486 129.594C350.577 128.285 348.055 126.442 345.921 124.017C343.836 121.592 342.138 118.634 340.926 115.094C339.714 111.554 339.132 107.577 339.132 103.116V72.0302H353.438V103.019Z" fill="white"/>
<path d="M421.719 47.928V129.885H407.51V47.928H421.719Z" fill="white"/>
<path d="M475.645 129.885V99.2845C475.645 94.8229 474.433 91.1373 472.057 88.2276C469.681 85.3179 466.189 83.8145 461.679 83.8145C459.4 83.8145 457.363 84.251 455.568 85.1239C453.774 85.9968 452.222 87.1607 450.961 88.664C449.652 90.1674 448.682 91.8647 447.955 93.8045C447.227 95.7443 446.888 97.8296 446.888 100.012V129.933H432.727V72.0787H445.53L446.451 79.45C449.41 76.1523 452.368 73.9215 455.374 72.6606C458.333 71.3998 461.727 70.7693 465.461 70.7693C468.808 70.7693 472.008 71.3998 475.015 72.6606C478.022 73.9215 480.64 75.7643 482.823 78.1891C485.005 80.6138 486.751 83.572 488.06 87.1122C489.37 90.6523 490 94.6774 490 99.1875V129.885H475.645Z" fill="white"/>
</svg>